<svg width="72" height="72" viewBox="0 0 72 72" fill="none" xmlns="http://www.w3.org/2000/svg">
<rect width="72" height="72" rx="36" fill="white"/>
<path d="M40 29.3333C40 31.5424 38.2091 33.3333 36 33.3333C33.7908 33.3333 32 31.5424 32 29.3333C32 27.1241 33.7908 25.3333 36 25.3333C38.2091 25.3333 40 27.1241 40 29.3333Z" stroke="#25262A" stroke-width="2" stroke-linecap="round" stroke-linejoin="round"/>
<path d="M33.3333 41.3333C33.3333 43.5424 31.5424 45.3333 29.3333 45.3333C27.1242 45.3333 25.3333 43.5424 25.3333 41.3333C25.3333 39.1241 27.1242 37.3333 29.3333 37.3333C31.5424 37.3333 33.3333 39.1241 33.3333 41.3333Z" stroke="#25262A" stroke-width="2" stroke-linecap="round" stroke-linejoin="round"/>
<path d="M46.6666 41.3333C46.6666 43.5424 44.8758 45.3333 42.6666 45.3333C40.4575 45.3333 38.6666 43.5424 38.6666 41.3333C38.6666 39.1241 40.4575 37.3333 42.6666 37.3333C44.8758 37.3333 46.6666 39.1241 46.6666 41.3333Z" stroke="#25262A" stroke-width="2" stroke-linecap="round" stroke-linejoin="round"/>
</svg>
